<?xml version="1.0" standalone="no"?>
<!DOCTYPE svg PUBLIC "-//W3C//DTD SVG 20010904//EN"
 "http://www.w3.org/TR/2001/REC-SVG-20010904/DTD/svg10.dtd">
<svg version="1.0" xmlns="http://www.w3.org/2000/svg"
 width="256.000000pt" height="256.000000pt" viewBox="0 0 256.000000 256.000000"
 preserveAspectRatio="xMidYMid meet">

<g transform="translate(0.000000,256.000000) scale(0.100000,-0.100000)"
fill="#000000" stroke="none">
<path d="M1320 2507 c-39 -12 -140 -107 -140 -131 0 -9 -25 -28 -59 -45 -32
-17 -74 -48 -93 -71 l-35 -40 -59 13 c-53 12 -59 16 -67 46 -17 69 -70 131
-142 169 -69 36 -179 38 -245 3 -54 -28 -97 -66 -116 -103 -8 -16 -26 -31 -42
-34 -72 -18 -142 -74 -177 -144 -10 -19 -20 -64 -23 -100 -3 -42 -11 -72 -22
-85 -40 -46 -55 -89 -55 -165 0 -85 20 -133 77 -186 56 -54 95 -69 178 -69 64
0 82 4 124 28 58 32 63 33 71 6 17 -52 131 -203 213 -280 100 -96 162 -133
253 -153 127 -27 186 -72 175 -130 -9 -42 -21 -53 -106 -96 -86 -43 -136 -93
-146 -144 -5 -28 -12 -36 -34 -41 -15 -3 -40 -20 -56 -36 -29 -30 -29 -32 -28
-142 0 -73 7 -135 18 -177 39 -142 139 -315 201 -344 47 -22 551 -24 594 -2
35 18 103 116 146 209 51 111 68 187 69 314 1 110 1 112 -28 142 -16 16 -42
33 -57 36 -16 4 -29 10 -29 14 0 5 28 25 62 46 82 51 185 153 241 241 57 88
84 100 131 56 65 -62 151 -84 233 -61 62 17 143 96 161 155 28 94 8 169 -63
240 -75 75 -176 95 -265 51 -30 -15 -33 -15 -53 5 -57 54 -140 70 -220 43 -40
-13 -48 -13 -83 1 -80 34 -186 -4 -235 -83 -36 -57 -34 -154 3 -210 35 -53 84
-82 149 -90 l53 -6 -54 -49 c-52 -47 -168 -124 -174 -117 -1 2 -8 30 -15 62
-19 86 -58 129 -211 233 -74 50 -136 98 -138 107 -3 12 37 28 175 72 177 56
310 117 382 174 36 29 39 29 77 16 46 -17 106 -19 154 -5 30 9 37 7 60 -14 52
-49 110 -71 190 -71 116 1 197 50 251 155 35 67 33 176 -3 246 -15 28 -42 64
-60 80 -31 28 -33 33 -34 99 0 102 -48 179 -139 228 -59 31 -175 31 -229 -1
-31 -18 -41 -20 -47 -10 -5 7 -9 16 -9 20 0 17 -76 91 -114 111 -31 16 -59 22
-116 22 -64 0 -83 -4 -127 -29 l-52 -28 -28 19 c-60 42 -139 53 -213 30z
m-665 -118 c75 -21 145 -115 145 -196 0 -29 8 -33 79 -37 85 -5 141 -40 175
-108 33 -66 33 -110 0 -176 -45 -90 -139 -128 -239 -97 l-56 18 -42 -45 c-31
-31 -57 -48 -92 -58 -44 -12 -54 -12 -107 7 l-59 20 -38 -28 c-60 -43 -110
-55 -167 -39 -129 36 -173 192 -81 291 29 31 31 40 32 104 0 55 6 79 23 107
28 45 74 75 130 84 36 6 46 12 62 43 25 49 70 90 116 106 48 17 68 18 119 4z
m699 -591 c-9 -17 -39 -55 -66 -84 -39 -42 -49 -58 -46 -81 2 -22 9 -29 31
-31 62 -7 284 71 373 132 29 19 41 23 51 14 8 -6 10 -14 6 -19 -14 -13 -276
-121 -388 -161 -102 -35 -165 -47 -165 -31 0 3 26 47 59 97 32 50 69 110 82
132 19 35 33 46 77 63 1 1 -5 -13 -14 -31z m-210 10 c-22 -37 -119 -162 -173
-222 -34 -38 -64 -80 -67 -93 -4 -13 -12 -23 -19 -23 -17 0 -125 108 -144 143
-14 25 -13 29 13 56 25 27 31 28 64 19 88 -24 212 18 274 92 30 36 69 57 52
28z m365 -44 c8 -7 -6 -15 -59 -35 l-53 -20 15 23 c8 13 18 29 22 36 7 12 61
9 75 -4z m-836 -197 c29 -48 154 -172 185 -181 13 -5 21 -18 24 -40 l4 -34
-41 28 c-92 65 -239 245 -212 262 6 4 13 8 14 8 0 0 12 -19 26 -43z m1145
-107 c40 -25 48 -25 97 0 22 11 50 20 62 20 41 0 89 -27 118 -64 32 -43 42
-44 91 -11 51 35 96 41 149 20 51 -19 80 -51 97 -106 33 -112 -78 -220 -194
-189 -38 11 -53 23 -118 98 l-21 24 -37 -23 c-57 -34 -117 -31 -173 9 -45 33
-45 33 -84 16 -70 -29 -144 11 -160 87 -9 42 21 100 65 121 45 23 67 23 108
-2z m-696 -59 c-2 -21 1 -48 7 -60 7 -12 67 -58 134 -102 186 -124 198 -138
215 -252 11 -70 42 -126 81 -147 15 -7 41 -57 41 -76 0 -2 -18 -4 -39 -4 -39
0 -40 1 -61 57 -29 77 -47 148 -56 219 -9 72 -17 81 -170 172 -174 104 -216
152 -184 213 19 34 36 23 32 -20z m703 -411 c-61 -62 -135 -116 -135 -98 0 19
32 63 62 87 38 30 111 71 117 65 3 -2 -17 -27 -44 -54z m-117 -322 c27 -27 6
-215 -38 -330 l-21 -58 -368 0 -369 0 -20 58 c-32 86 -41 129 -48 223 -6 72
-4 87 10 102 16 15 55 17 430 17 307 0 415 -3 424 -12z"/>
</g>
</svg>
