{
  "accessors": [
    {
      "bufferView": 2,
      "componentType": 5126,
      "count": 18368,
      "max": [
        2.493309497833252,
        6.484395503997803,
        2.518219470977783
      ],
      "min": [
        -2.913335084915161,
        0.0,
        -2.9490883350372314
      ],
      "type": "VEC3"
    },
    {
      "bufferView": 2,
      "byteOffset": 220416,
      "componentType": 5126,
      "count": 18368,
      "max": [
        0.9998679757118225,
        0.9996381998062134,
        0.9999668002128601
      ],
      "min": [
        -0.9999823570251465,
        -0.9999212622642517,
        -0.9999931454658508
      ],
      "type": "VEC3"
    },
    {
      "bufferView": 1,
      "componentType": 5126,
      "count": 18368,
      "max": [
        3.0,
        3.0
      ],
      "min": [
        -2.0,
        -2.0
      ],
      "type": "VEC2"
    },
    {
      "bufferView": 0,
      "componentType": 5125,
      "count": 87696,
      "type": "SCALAR"
    },
    {
      "bufferView": 2,
      "byteOffset": 440832,
      "componentType": 5126,
      "count": 31178,
      "max": [
        2.6603000164031982,
        6.750138759613037,
        2.7942800521850586
      ],
      "min": [
        -3.074191093444824,
        0.7415499687194824,
        -3.3128855228424072
      ],
      "type": "VEC3"
    },
    {
      "bufferView": 2,
      "byteOffset": 814968,
      "componentType": 5126,
      "count": 31178,
      "max": [
        0.9983761310577393,
        0.9999509453773499,
        0.9999125003814697
      ],
      "min": [
        -0.999732494354248,
        -0.68031245470047,
        -0.9997171759605408
      ],
      "type": "VEC3"
    },
    {
      "bufferView": 1,
      "byteOffset": 146944,
      "componentType": 5126,
      "count": 31178,
      "max": [
        0.9986052513122559,
        0.85161292552948
      ],
      "min": [
        0.4857698380947113,
        0.07684576511383057
      ],
      "type": "VEC2"
    },
    {
      "bufferView": 0,
      "byteOffset": 350784,
      "componentType": 5125,
      "count": 31284,
      "type": "SCALAR"
    },
    {
      "bufferView": 2,
      "byteOffset": 1189104,
      "componentType": 5126,
      "count": 4,
      "max": [
        2.5,
        0.013196885585784912,
        2.5
      ],
      "min": [
        -2.5,
        0.013196885585784912,
        -2.5
      ],
      "type": "VEC3"
    },
    {
      "bufferView": 2,
      "byteOffset": 1189152,
      "componentType": 5126,
      "count": 4,
      "max": [
        0.0,
        -1.0,
        -0.0
      ],
      "min": [
        0.0,
        -1.0,
        -0.0
      ],
      "type": "VEC3"
    },
    {
      "bufferView": 1,
      "byteOffset": 396368,
      "componentType": 5126,
      "count": 4,
      "max": [
        1.0,
        1.0
      ],
      "min": [
        0.0,
        0.0
      ],
      "type": "VEC2"
    },
    {
      "bufferView": 0,
      "byteOffset": 475920,
      "componentType": 5125,
      "count": 6,
      "type": "SCALAR"
    },
    {
      "bufferView": 2,
      "byteOffset": 1189200,
      "componentType": 5126,
      "count": 184,
      "max": [
        2.457932233810425,
        0.4661669433116913,
        2.3900904655456543
      ],
      "min": [
        -2.468632936477661,
        -0.026590406894683838,
        -2.4608561992645264
      ],
      "type": "VEC3"
    },
    {
      "bufferView": 2,
      "byteOffset": 1191408,
      "componentType": 5126,
      "count": 184,
      "max": [
        1.0,
        0.0,
        0.9999600052833557
      ],
      "min": [
        -0.9999600648880005,
        0.0,
        -1.0
      ],
      "type": "VEC3"
    },
    {
      "bufferView": 1,
      "byteOffset": 396400,
      "componentType": 5126,
      "count": 184,
      "max": [
        0.9330614805221558,
        0.32472681999206543
      ],
      "min": [
        0.5845084190368652,
        0.07995045185089111
      ],
      "type": "VEC2"
    },
    {
      "bufferView": 0,
      "byteOffset": 475944,
      "componentType": 5125,
      "count": 276,
      "type": "SCALAR"
    },
    {
      "bufferView": 2,
      "byteOffset": 1193616,
      "componentType": 5126,
      "count": 176,
      "max": [
        2.470791816711426,
        0.8201870322227478,
        2.1571760177612305
      ],
      "min": [
        -2.351930618286133,
        -0.026285916566848755,
        -2.4742298126220703
      ],
      "type": "VEC3"
    },
    {
      "bufferView": 2,
      "byteOffset": 1195728,
      "componentType": 5126,
      "count": 176,
      "max": [
        1.0,
        0.0,
        0.9913690686225891
      ],
      "min": [
        -0.9999905228614807,
        0.0,
        -1.0
      ],
      "type": "VEC3"
    },
    {
      "bufferView": 1,
      "byteOffset": 397872,
      "componentType": 5126,
      "count": 176,
      "max": [
        0.40175649523735046,
        0.43355733156204224
      ],
      "min": [
        0.13939791917800903,
        0.006379961967468262
      ],
      "type": "VEC2"
    },
    {
      "bufferView": 0,
      "byteOffset": 477048,
      "componentType": 5125,
      "count": 264,
      "type": "SCALAR"
    },
    {
      "bufferView": 2,
      "byteOffset": 1197840,
      "componentType": 5126,
      "count": 96,
      "max": [
        1.4674673080444336,
        0.14100788533687592,
        1.2282466888427734
      ],
      "min": [
        -1.286570429801941,
        0.005622497294098139,
        -1.3423082828521729
      ],
      "type": "VEC3"
    },
    {
      "bufferView": 2,
      "byteOffset": 1198992,
      "componentType": 5126,
      "count": 96,
      "max": [
        0.9776613712310791,
        0.0,
        0.7182351350784302
      ],
      "min": [
        0.0,
        -1.0,
        -0.9534210562705994
      ],
      "type": "VEC3"
    },
    {
      "bufferView": 1,
      "byteOffset": 399280,
      "componentType": 5126,
      "count": 96,
      "max": [
        0.6216744184494019,
        0.9319685697555542
      ],
      "min": [
        0.3808164596557617,
        0.4648815989494324
      ],
      "type": "VEC2"
    },
    {
      "bufferView": 0,
      "byteOffset": 478104,
      "componentType": 5125,
      "count": 144,
      "type": "SCALAR"
    },
    {
      "bufferView": 2,
      "byteOffset": 1200144,
      "componentType": 5126,
      "count": 20,
      "max": [
        2.5,
        0.013196885585784912,
        2.5
      ],
      "min": [
        -2.5,
        -0.2579512298107147,
        -2.5
      ],
      "type": "VEC3"
    },
    {
      "bufferView": 2,
      "byteOffset": 1200384,
      "componentType": 5126,
      "count": 20,
      "max": [
        1.0,
        1.0,
        1.0
      ],
      "min": [
        -1.0,
        0.0,
        -1.0
      ],
      "type": "VEC3"
    },
    {
      "bufferView": 1,
      "byteOffset": 400048,
      "componentType": 5126,
      "count": 20,
      "max": [
        1.0,
        1.0
      ],
      "min": [
        0.0,
        0.0
      ],
      "type": "VEC2"
    },
    {
      "bufferView": 0,
      "byteOffset": 478680,
      "componentType": 5125,
      "count": 30,
      "type": "SCALAR"
    },
    {
      "bufferView": 2,
      "byteOffset": 1200624,
      "componentType": 5126,
      "count": 2143,
      "max": [
        25.205421447753906,
        25.205427169799805,
        23.650371551513672
      ],
      "min": [
        -25.205448150634766,
        -25.20543670654297,
        -26.76046371459961
      ],
      "type": "VEC3"
    },
    {
      "bufferView": 2,
      "byteOffset": 1226340,
      "componentType": 5126,
      "count": 2143,
      "max": [
        1.0,
        1.0,
        0.9999999403953552
      ],
      "min": [
        -1.0,
        -1.0,
        -0.9999999403953552
      ],
      "type": "VEC3"
    },
    {
      "bufferView": 1,
      "byteOffset": 400208,
      "componentType": 5126,
      "count": 2143,
      "max": [
        1.0000009536743164,
        1.0
      ],
      "min": [
        0.0,
        0.0
      ],
      "type": "VEC2"
    },
    {
      "bufferView": 0,
      "byteOffset": 478800,
      "componentType": 5125,
      "count": 11904,
      "type": "SCALAR"
    }
  ],
  "asset": {
    "extras": {
      "author": "LordSamueliSolo (https://sketchfab.com/LadyLionStudios)",
      "license": "CC-BY-4.0 (http://creativecommons.org/licenses/by/4.0/)",
      "source": "https://sketchfab.com/3d-models/tree-with-grass-glb-free-low-poly-27e97a380998418985fc04186499e4da",
      "title": "Tree With Grass .glb FREE Low Poly"
    },
    "generator": "Sketchfab-12.68.0",
    "version": "2.0"
  },
  "bufferViews": [
    {
      "buffer": 0,
      "byteLength": 526416,
      "name": "floatBufferViews",
      "target": 34963
    },
    {
      "buffer": 0,
      "byteLength": 417352,
      "byteOffset": 526416,
      "byteStride": 8,
      "name": "floatBufferViews",
      "target": 34962
    },
    {
      "buffer": 0,
      "byteLength": 1252056,
      "byteOffset": 943768,
      "byteStride": 12,
      "name": "floatBufferViews",
      "target": 34962
    }
  ],
  "buffers": [
    {
      "byteLength": 2195824,
      "uri": "scene.bin"
    }
  ],
  "images": [
    {
      "uri": "textures/TreeA2_baseColor.jpeg"
    },
    {
      "uri": "textures/TreeA1_baseColor.png"
    },
    {
      "uri": "textures/Floor_baseColor.jpeg"
    },
    {
      "uri": "textures/GrassA1_baseColor.png"
    },
    {
      "uri": "textures/FloorA2_baseColor.jpeg"
    },
    {
      "uri": "textures/BackdropA111_baseColor.png"
    }
  ],
  "materials": [
    {
      "doubleSided": true,
      "name": "TreeA2",
      "pbrMetallicRoughness": {
        "baseColorTexture": {
          "index": 0
        },
        "metallicFactor": 0.0
      }
    },
    {
      "alphaMode": "BLEND",
      "doubleSided": true,
      "name": "TreeA1",
      "pbrMetallicRoughness": {
        "baseColorTexture": {
          "index": 1
        },
        "roughnessFactor": 0.9258963695286042
      }
    },
    {
      "doubleSided": true,
      "name": "Floor",
      "pbrMetallicRoughness": {
        "baseColorTexture": {
          "index": 2
        }
      }
    },
    {
      "alphaMode": "BLEND",
      "doubleSided": true,
      "name": "GrassA1",
      "pbrMetallicRoughness": {
        "baseColorTexture": {
          "index": 3
        },
        "roughnessFactor": 0.8711748110586189
      }
    },
    {
      "alphaMode": "BLEND",
      "doubleSided": true,
      "name": "GrassA2",
      "pbrMetallicRoughness": {
        "baseColorTexture": {
          "index": 3
        },
        "roughnessFactor": 0.7860523867719753
      }
    },
    {
      "alphaMode": "BLEND",
      "doubleSided": true,
      "name": "GrassA3",
      "pbrMetallicRoughness": {
        "baseColorTexture": {
          "index": 3
        }
      }
    },
    {
      "doubleSided": true,
      "name": "FloorA2",
      "pbrMetallicRoughness": {
        "baseColorTexture": {
          "index": 4
        },
        "roughnessFactor": 0.5
      }
    },
    {
      "doubleSided": true,
      "name": "BackdropA111",
      "pbrMetallicRoughness": {
        "baseColorTexture": {
          "index": 5
        },
        "roughnessFactor": 0.5
      }
    }
  ],
  "meshes": [
    {
      "name": "Object_0",
      "primitives": [
        {
          "attributes": {
            "NORMAL": 1,
            "POSITION": 0,
            "TEXCOORD_0": 2
          },
          "indices": 3,
          "material": 0,
          "mode": 4
        }
      ]
    },
    {
      "name": "Object_1",
      "primitives": [
        {
          "attributes": {
            "NORMAL": 5,
            "POSITION": 4,
            "TEXCOORD_0": 6
          },
          "indices": 7,
          "material": 1,
          "mode": 4
        }
      ]
    },
    {
      "name": "Object_2",
      "primitives": [
        {
          "attributes": {
            "NORMAL": 9,
            "POSITION": 8,
            "TEXCOORD_0": 10
          },
          "indices": 11,
          "material": 2,
          "mode": 4
        }
      ]
    },
    {
      "name": "Object_3",
      "primitives": [
        {
          "attributes": {
            "NORMAL": 13,
            "POSITION": 12,
            "TEXCOORD_0": 14
          },
          "indices": 15,
          "material": 3,
          "mode": 4
        }
      ]
    },
    {
      "name": "Object_4",
      "primitives": [
        {
          "attributes": {
            "NORMAL": 17,
            "POSITION": 16,
            "TEXCOORD_0": 18
          },
          "indices": 19,
          "material": 4,
          "mode": 4
        }
      ]
    },
    {
      "name": "Object_5",
      "primitives": [
        {
          "attributes": {
            "NORMAL": 21,
            "POSITION": 20,
            "TEXCOORD_0": 22
          },
          "indices": 23,
          "material": 5,
          "mode": 4
        }
      ]
    },
    {
      "name": "Object_6",
      "primitives": [
        {
          "attributes": {
            "NORMAL": 25,
            "POSITION": 24,
            "TEXCOORD_0": 26
          },
          "indices": 27,
          "material": 6,
          "mode": 4
        }
      ]
    },
    {
      "name": "Object_7",
      "primitives": [
        {
          "attributes": {
            "NORMAL": 29,
            "POSITION": 28,
            "TEXCOORD_0": 30
          },
          "indices": 31,
          "material": 7,
          "mode": 4
        }
      ]
    }
  ],
  "nodes": [
    {
      "children": [
        1
      ],
      "matrix": [
        1.0,
        0.0,
        0.0,
        0.0,
        0.0,
        2.220446049250313e-16,
        -1.0,
        0.0,
        0.0,
        1.0,
        2.220446049250313e-16,
        0.0,
        0.0,
        0.0,
        0.0,
        1.0
      ],
      "name": "Sketchfab_model"
    },
    {
      "children": [
        2
      ],
      "name": "root"
    },
    {
      "children": [
        3,
        7,
        9,
        11,
        13,
        15,
        17
      ],
      "matrix": [
        1.0,
        0.0,
        0.0,
        0.0,
        0.0,
        2.220446049250313e-16,
        1.0,
        0.0,
        0.0,
        -1.0,
        2.220446049250313e-16,
        0.0,
        0.0,
        0.0,
        0.0,
        1.0
      ],
      "name": "GLTF_SceneRootNode"
    },
    {
      "children": [
        4,
        5
      ],
      "name": "tree_1"
    },
    {
      "mesh": 0,
      "name": "Object_4"
    },
    {
      "children": [
        6
      ],
      "name": "leaves_0"
    },
    {
      "mesh": 1,
      "name": "Object_6"
    },
    {
      "children": [
        8
      ],
      "name": "Cube_2"
    },
    {
      "mesh": 2,
      "name": "Object_8"
    },
    {
      "children": [
        10
      ],
      "name": "Plane_3"
    },
    {
      "mesh": 3,
      "name": "Object_10"
    },
    {
      "children": [
        12
      ],
      "name": "Plane.001_4"
    },
    {
      "mesh": 4,
      "name": "Object_12"
    },
    {
      "children": [
        14
      ],
      "name": "Plane.002_5"
    },
    {
      "mesh": 5,
      "name": "Object_14"
    },
    {
      "children": [
        16
      ],
      "name": "Cube.001_6"
    },
    {
      "mesh": 6,
      "name": "Object_16"
    },
    {
      "children": [
        18
      ],
      "matrix": [
        1.0,
        0.0,
        0.0,
        0.0,
        0.0,
        -1.685873969314855e-07,
        0.9999999999999858,
        0.0,
        0.0,
        -0.9999999999999858,
        -1.685873969314855e-07,
        0.0,
        0.0,
        0.0,
        0.0,
        1.0
      ],
      "name": "Sphere_7"
    },
    {
      "mesh": 7,
      "name": "Object_18"
    }
  ],
  "samplers": [
    {
      "magFilter": 9729,
      "minFilter": 9987,
      "wrapS": 10497,
      "wrapT": 10497
    }
  ],
  "scene": 0,
  "scenes": [
    {
      "name": "Sketchfab_Scene",
      "nodes": [
        0
      ]
    }
  ],
  "textures": [
    {
      "sampler": 0,
      "source": 0
    },
    {
      "sampler": 0,
      "source": 1
    },
    {
      "sampler": 0,
      "source": 2
    },
    {
      "sampler": 0,
      "source": 3
    },
    {
      "sampler": 0,
      "source": 4
    },
    {
      "sampler": 0,
      "source": 5
    }
  ]
}
